<svg aria-hidden="true" style="position: absolute; width: 0; height: 0; overflow: hidden;" version="1.1" xmlns="http://www.w3.org/2000/svg" xmlns:xlink="http://www.w3.org/1999/xlink">
<defs>
<symbol id="icon-logo" viewBox="0 0 36 32">
<path fill="#ecd979" style="fill: var(--color1, #ecd979)" d="M15.786 11.416h-1.126v-1.142h1.126v1.142z"></path>
<path fill="#ecd979" style="fill: var(--color1, #ecd979)" d="M14.66 11.416h-1.126v-1.142h1.126v1.142z"></path>
<path fill="#ecd979" style="fill: var(--color1, #ecd979)" d="M9.030 11.416h-1.126v-1.142h1.126v1.142z"></path>
<path fill="#ecd979" style="fill: var(--color1, #ecd979)" d="M7.904 11.416h-1.126v-1.142h1.126v1.142z"></path>
<path fill="#ecd979" style="fill: var(--color1, #ecd979)" d="M6.778 11.416h-1.126v-1.142h1.126v1.142z"></path>
<path fill="#ecd979" style="fill: var(--color1, #ecd979)" d="M29.298 10.274h-1.126v-1.142h1.126v1.142z"></path>
<path fill="#ecd979" style="fill: var(--color1, #ecd979)" d="M28.172 10.274h-1.126v-1.142h1.126v1.142z"></path>
<path fill="#ecd979" style="fill: var(--color1, #ecd979)" d="M20.29 10.274h-1.126v-1.142h1.126v1.142z"></path>
<path fill="#ecd979" style="fill: var(--color1, #ecd979)" d="M19.164 10.274h-1.126v-1.142h1.126v1.142z"></path>
<path fill="#ecd979" style="fill: var(--color1, #ecd979)" d="M16.912 10.274h-1.126v-1.142h1.126v1.142z"></path>
<path fill="#ecd979" style="fill: var(--color1, #ecd979)" d="M15.786 10.274h-1.126v-1.142h1.126v1.142z"></path>
<path fill="#ecd979" style="fill: var(--color1, #ecd979)" d="M7.904 10.274h-1.126v-1.142h1.126v1.142z"></path>
<path fill="#ecd979" style="fill: var(--color1, #ecd979)" d="M6.778 10.274h-1.126v-1.142h1.126v1.142z"></path>
<path fill="#ecd979" style="fill: var(--color1, #ecd979)" d="M29.298 9.133h-1.126v-1.142h1.126v1.142z"></path>
<path fill="#ecd979" style="fill: var(--color1, #ecd979)" d="M19.164 9.133h-1.126v-1.142h1.126v1.142z"></path>
<path fill="#ecd979" style="fill: var(--color1, #ecd979)" d="M16.912 9.133h-1.126v-1.142h1.126v1.142z"></path>
<path fill="#ecd979" style="fill: var(--color1, #ecd979)" d="M6.778 9.133h-1.126v-1.142h1.126v1.142z"></path>
<path fill="#ecd979" style="fill: var(--color1, #ecd979)" d="M34.928 7.991h-1.126v-1.142h1.126v1.142z"></path>
<path fill="#ecd979" style="fill: var(--color1, #ecd979)" d="M1.148 7.991h-1.126v-1.142h1.126v1.142z"></path>
<path fill="#ecd979" style="fill: var(--color1, #ecd979)" d="M34.928 6.849h-1.126v-1.142h1.126v1.142z"></path>
<path fill="#ecd979" style="fill: var(--color1, #ecd979)" d="M33.802 6.849h-1.126v-1.142h1.126v1.142z"></path>
<path fill="#ecd979" style="fill: var(--color1, #ecd979)" d="M23.668 6.849h-1.126v-1.142h1.126v1.142z"></path>
<path fill="#ecd979" style="fill: var(--color1, #ecd979)" d="M22.542 6.849h-1.126v-1.142h1.126v1.142z"></path>
<path fill="#ecd979" style="fill: var(--color1, #ecd979)" d="M21.416 6.849h-1.126v-1.142h1.126v1.142z"></path>
<path fill="#ecd979" style="fill: var(--color1, #ecd979)" d="M14.66 6.849h-1.126v-1.142h1.126v1.142z"></path>
<path fill="#ecd979" style="fill: var(--color1, #ecd979)" d="M13.534 6.849h-1.126v-1.142h1.126v1.142z"></path>
<path fill="#ecd979" style="fill: var(--color1, #ecd979)" d="M12.408 6.849h-1.126v-1.142h1.126v1.142z"></path>
<path fill="#ecd979" style="fill: var(--color1, #ecd979)" d="M2.274 6.849h-1.126v-1.142h1.126v1.142z"></path>
<path fill="#ecd979" style="fill: var(--color1, #ecd979)" d="M1.148 6.849h-1.126v-1.142h1.126v1.142z"></path>
<path fill="#ecd979" style="fill: var(--color1, #ecd979)" d="M34.928 5.708h-1.126v-1.142h1.126v1.142z"></path>
<path fill="#ecd979" style="fill: var(--color1, #ecd979)" d="M33.802 5.708h-1.126v-1.142h1.126v1.142z"></path>
<path fill="#ecd979" style="fill: var(--color1, #ecd979)" d="M32.676 5.708h-1.126v-1.142h1.126v1.142z"></path>
<path fill="#ecd979" style="fill: var(--color1, #ecd979)" d="M24.794 5.708h-1.126v-1.142h1.126v1.142z"></path>
<path fill="#ecd979" style="fill: var(--color1, #ecd979)" d="M23.668 5.708h-1.126v-1.142h1.126v1.142z"></path>
<path fill="#ecd979" style="fill: var(--color1, #ecd979)" d="M22.542 5.708h-1.126v-1.142h1.126v1.142z"></path>
<path fill="#ecd979" style="fill: var(--color1, #ecd979)" d="M19.164 5.708h-1.126v-1.142h1.126v1.142z"></path>
<path fill="#ecd979" style="fill: var(--color1, #ecd979)" d="M16.912 5.708h-1.126v-1.142h1.126v1.142z"></path>
<path fill="#ecd979" style="fill: var(--color1, #ecd979)" d="M13.534 5.708h-1.126v-1.142h1.126v1.142z"></path>
<path fill="#ecd979" style="fill: var(--color1, #ecd979)" d="M12.408 5.708h-1.126v-1.142h1.126v1.142z"></path>
<path fill="#ecd979" style="fill: var(--color1, #ecd979)" d="M11.282 5.708h-1.126v-1.142h1.126v1.142z"></path>
<path fill="#ecd979" style="fill: var(--color1, #ecd979)" d="M3.4 5.708h-1.126v-1.142h1.126v1.142z"></path>
<path fill="#ecd979" style="fill: var(--color1, #ecd979)" d="M2.274 5.708h-1.126v-1.142h1.126v1.142z"></path>
<path fill="#ecd979" style="fill: var(--color1, #ecd979)" d="M1.148 5.708h-1.126v-1.142h1.126v1.142z"></path>
<path fill="#ecd979" style="fill: var(--color1, #ecd979)" d="M33.802 4.566h-1.126v-1.142h1.126v1.142z"></path>
<path fill="#ecd979" style="fill: var(--color1, #ecd979)" d="M32.676 4.566h-1.126v-1.142h1.126v1.142z"></path>
<path fill="#ecd979" style="fill: var(--color1, #ecd979)" d="M31.55 4.566h-1.126v-1.142h1.126v1.142z"></path>
<path fill="#ecd979" style="fill: var(--color1, #ecd979)" d="M25.92 4.566h-1.126v-1.142h1.126v1.142z"></path>
<path fill="#ecd979" style="fill: var(--color1, #ecd979)" d="M24.794 4.566h-1.126v-1.142h1.126v1.142z"></path>
<path fill="#ecd979" style="fill: var(--color1, #ecd979)" d="M23.668 4.566h-1.126v-1.142h1.126v1.142z"></path>
<path fill="#ecd979" style="fill: var(--color1, #ecd979)" d="M20.29 4.566h-1.126v-1.142h1.126v1.142z"></path>
<path fill="#ecd979" style="fill: var(--color1, #ecd979)" d="M19.164 4.566h-1.126v-1.142h1.126v1.142z"></path>
<path fill="#ecd979" style="fill: var(--color1, #ecd979)" d="M16.912 4.566h-1.126v-1.142h1.126v1.142z"></path>
<path fill="#ecd979" style="fill: var(--color1, #ecd979)" d="M15.786 4.566h-1.126v-1.142h1.126v1.142z"></path>
<path fill="#ecd979" style="fill: var(--color1, #ecd979)" d="M12.408 4.566h-1.126v-1.142h1.126v1.142z"></path>
<path fill="#ecd979" style="fill: var(--color1, #ecd979)" d="M11.282 4.566h-1.126v-1.142h1.126v1.142z"></path>
<path fill="#ecd979" style="fill: var(--color1, #ecd979)" d="M10.156 4.566h-1.126v-1.142h1.126v1.142z"></path>
<path fill="#ecd979" style="fill: var(--color1, #ecd979)" d="M4.526 4.566h-1.126v-1.142h1.126v1.142z"></path>
<path fill="#ecd979" style="fill: var(--color1, #ecd979)" d="M3.4 4.566h-1.126v-1.142h1.126v1.142z"></path>
<path fill="#ecd979" style="fill: var(--color1, #ecd979)" d="M2.274 4.566h-1.126v-1.142h1.126v1.142z"></path>
<path fill="#ecd979" style="fill: var(--color1, #ecd979)" d="M32.676 3.425h-1.126v-1.142h1.126v1.142z"></path>
<path fill="#ecd979" style="fill: var(--color1, #ecd979)" d="M31.55 3.425h-1.126v-1.142h1.126v1.142z"></path>
<path fill="#ecd979" style="fill: var(--color1, #ecd979)" d="M30.424 3.425h-1.126v-1.142h1.126v1.142z"></path>
<path fill="#ecd979" style="fill: var(--color1, #ecd979)" d="M21.416 3.425h-1.126v-1.142h1.126v1.142z"></path>
<path fill="#ecd979" style="fill: var(--color1, #ecd979)" d="M20.29 3.425h-1.126v-1.142h1.126v1.142z"></path>
<path fill="#ecd979" style="fill: var(--color1, #ecd979)" d="M19.164 3.425h-1.126v-1.142h1.126v1.142z"></path>
<path fill="#ecd979" style="fill: var(--color1, #ecd979)" d="M16.912 3.425h-1.126v-1.142h1.126v1.142z"></path>
<path fill="#ecd979" style="fill: var(--color1, #ecd979)" d="M15.786 3.425h-1.126v-1.142h1.126v1.142z"></path>
<path fill="#ecd979" style="fill: var(--color1, #ecd979)" d="M14.66 3.425h-1.126v-1.142h1.126v1.142z"></path>
<path fill="#ecd979" style="fill: var(--color1, #ecd979)" d="M5.652 3.425h-1.126v-1.142h1.126v1.142z"></path>
<path fill="#ecd979" style="fill: var(--color1, #ecd979)" d="M4.526 3.425h-1.126v-1.142h1.126v1.142z"></path>
<path fill="#ecd979" style="fill: var(--color1, #ecd979)" d="M3.4 3.425h-1.126v-1.142h1.126v1.142z"></path>
<path fill="#ecd979" style="fill: var(--color1, #ecd979)" d="M36.054 2.283h-1.126v-1.142h1.126v1.142z"></path>
<path fill="#ecd979" style="fill: var(--color1, #ecd979)" d="M31.55 2.283h-1.126v-1.142h1.126v1.142z"></path>
<path fill="#ecd979" style="fill: var(--color1, #ecd979)" d="M30.424 2.283h-1.126v-1.142h1.126v1.142z"></path>
<path fill="#ecd979" style="fill: var(--color1, #ecd979)" d="M29.298 2.283h-1.126v-1.142h1.126v1.142z"></path>
<path fill="#ecd979" style="fill: var(--color1, #ecd979)" d="M21.416 2.283h-1.126v-1.142h1.126v1.142z"></path>
<path fill="#ecd979" style="fill: var(--color1, #ecd979)" d="M20.29 2.283h-1.126v-1.142h1.126v1.142z"></path>
<path fill="#ecd979" style="fill: var(--color1, #ecd979)" d="M15.786 2.283h-1.126v-1.142h1.126v1.142z"></path>
<path fill="#ecd979" style="fill: var(--color1, #ecd979)" d="M14.66 2.283h-1.126v-1.142h1.126v1.142z"></path>
<path fill="#ecd979" style="fill: var(--color1, #ecd979)" d="M6.778 2.283h-1.126v-1.142h1.126v1.142z"></path>
<path fill="#ecd979" style="fill: var(--color1, #ecd979)" d="M5.652 2.283h-1.126v-1.142h1.126v1.142z"></path>
<path fill="#ecd979" style="fill: var(--color1, #ecd979)" d="M4.526 2.283h-1.126v-1.142h1.126v1.142z"></path>
<path fill="#ecd979" style="fill: var(--color1, #ecd979)" d="M36.054 1.142h-1.126v-1.142h1.126v1.142z"></path>
<path fill="#ecd979" style="fill: var(--color1, #ecd979)" d="M34.928 1.142h-1.126v-1.142h1.126v1.142z"></path>
<path fill="#ecd979" style="fill: var(--color1, #ecd979)" d="M30.424 1.142h-1.126v-1.142h1.126v1.142z"></path>
<path fill="#ecd979" style="fill: var(--color1, #ecd979)" d="M29.298 1.142h-1.126v-1.142h1.126v1.142z"></path>
<path fill="#ecd979" style="fill: var(--color1, #ecd979)" d="M28.172 1.142h-1.126v-1.142h1.126v1.142z"></path>
<path fill="#ecd979" style="fill: var(--color1, #ecd979)" d="M21.416 1.142h-1.126v-1.142h1.126v1.142z"></path>
<path fill="#ecd979" style="fill: var(--color1, #ecd979)" d="M14.66 1.142h-1.126v-1.142h1.126v1.142z"></path>
<path fill="#ecd979" style="fill: var(--color1, #ecd979)" d="M7.904 1.142h-1.126v-1.142h1.126v1.142z"></path>
<path fill="#ecd979" style="fill: var(--color1, #ecd979)" d="M6.778 1.142h-1.126v-1.142h1.126v1.142z"></path>
<path fill="#ecd979" style="fill: var(--color1, #ecd979)" d="M5.652 1.142h-1.126v-1.142h1.126v1.142z"></path>
<path fill="#ecd979" style="fill: var(--color1, #ecd979)" d="M1.148 1.142h-1.126v-1.142h1.126v1.142z"></path>
</symbol>
<symbol id="icon-nav" viewBox="0 0 32 32">
<path fill="none"  stroke-linejoin="miter" stroke-linecap="round" stroke-miterlimit="4" stroke-width="2.1818" d="M5.961 8.628h24.949"></path>
<path fill="none"  stroke-linejoin="miter" stroke-linecap="round" stroke-miterlimit="4" stroke-width="2.1818" d="M5.961 21.851h24.949"></path>
<path fill="none"  stroke-linejoin="miter" stroke-linecap="round" stroke-miterlimit="4" stroke-width="2.1818" d="M13.613 15.24h17.296"></path>
</symbol>
<symbol id="icon-youtube" viewBox="0 0 32 32">
<path  d="M23.974 6.345c-1.313-0.077-4.017-0.154-8.11-0.154h-0.541c-3.939 0-6.565 0.077-7.879 0.232-1.777 0.154-3.012 0.618-3.708 1.236-0.618 0.541-1.081 1.545-1.236 2.858-0.077 0.85-0.155 2.626-0.155 5.33v0.386c0 2.549 0.077 4.326 0.232 5.175 0.232 1.236 0.618 2.163 1.39 2.703 0.772 0.618 2.085 1.004 3.939 1.159 1.313 0.077 4.017 0.154 8.11 0.154h0.541c3.939 0 6.566-0.077 7.879-0.232 1.777-0.154 3.012-0.618 3.708-1.236 0.618-0.541 1.081-1.545 1.236-2.858 0.077-0.85 0.154-2.626 0.154-5.33v-0.386c0-2.549-0.077-4.326-0.232-5.175-0.232-1.236-0.618-2.163-1.39-2.703-0.772-0.618-2.086-1.004-3.939-1.159zM20.962 15.845l-8.497 5.098v-10.196l8.497 5.098z"></path>
</symbol>
<symbol id="icon-instagram" viewBox="0 0 32 32">
<path  d="M28.297 10.937c-0.015-1.037-0.207-2.066-0.575-3.037-0.644-1.657-1.955-2.967-3.614-3.608-0.959-0.36-1.974-0.554-3-0.575-1.32-0.059-1.739-0.075-5.091-0.075s-3.781 0-5.092 0.075c-1.025 0.022-2.040 0.215-2.999 0.575-1.659 0.641-2.972 1.951-3.614 3.608-0.361 0.958-0.556 1.97-0.575 2.994-0.059 1.32-0.077 1.738-0.077 5.084s0 3.774 0.077 5.084c0.021 1.025 0.214 2.036 0.575 2.997 0.644 1.655 1.955 2.965 3.615 3.607 0.955 0.373 1.97 0.584 2.999 0.617 1.322 0.059 1.74 0.077 5.092 0.077s3.781 0 5.092-0.077c1.025-0.021 2.040-0.214 3-0.574 1.659-0.643 2.97-1.953 3.614-3.608 0.361-0.959 0.554-1.97 0.575-2.997 0.059-1.318 0.077-1.736 0.077-5.084-0.003-3.346-0.003-3.771-0.080-5.082zM16.009 22.306c-3.506 0-6.345-2.835-6.345-6.335s2.84-6.335 6.345-6.335c3.503 0 6.346 2.835 6.346 6.335s-2.843 6.335-6.346 6.335zM22.607 10.879c-0.819 0-1.48-0.66-1.48-1.477s0.66-1.477 1.48-1.477c0.817 0 1.478 0.66 1.478 1.477s-0.662 1.477-1.478 1.477z"></path>
<path  d="M16.011 19.839c2.135 0 3.866-1.731 3.866-3.866s-1.731-3.866-3.866-3.866c-2.135 0-3.866 1.731-3.866 3.866s1.731 3.866 3.866 3.866z"></path>
</symbol>
<symbol id="icon-facebook" viewBox="0 0 32 32">
<path  d="M19.417 5.032c0.232 0 0.463 0 0.927 0v3.476c-0.232 0-0.695 0-1.159 0s-0.927 0-1.159 0.232c-0.232 0.232-0.232 0.463-0.232 1.004 0 0.463 0 0.772 0 1.236h2.549v2.935h-2.549v12.745h-3.939v-12.822h-2.086v-2.935h2.086v-1.004c0-1.699 0.232-2.935 0.695-3.476 0.695-1.004 2.086-1.468 4.171-1.468 0.232 0.077 0.463 0.077 0.695 0.077z"></path>
</symbol>
<symbol id="icon-star" viewBox="0 0 32 32">
<path  d="M15.434 0.333c0.251-0.437 0.881-0.437 1.133 0l1.84 3.203c0.19 0.33 0.621 0.429 0.935 0.214l3.081-2.107c0.418-0.286 0.987-0.008 1.020 0.496l0.239 3.642c0.025 0.383 0.374 0.662 0.754 0.602l3.69-0.584c0.504-0.080 0.9 0.423 0.706 0.894l-1.386 3.36c-0.148 0.359 0.048 0.767 0.421 0.876l3.555 1.036c0.493 0.144 0.635 0.773 0.252 1.115l-2.731 2.433c-0.291 0.26-0.291 0.715 0 0.975l2.731 2.433c0.383 0.341 0.241 0.971-0.252 1.115l-3.555 1.036c-0.373 0.109-0.569 0.517-0.421 0.876l1.386 3.36c0.194 0.471-0.202 0.974-0.706 0.894l-3.69-0.584c-0.38-0.060-0.729 0.219-0.754 0.602l-0.239 3.642c-0.033 0.505-0.603 0.782-1.020 0.496l-3.081-2.107c-0.314-0.215-0.745-0.116-0.935 0.214l-1.84 3.203c-0.251 0.437-0.881 0.437-1.133 0l-1.84-3.203c-0.19-0.33-0.621-0.429-0.935-0.214l-3.081 2.107c-0.418 0.286-0.987 0.009-1.020-0.496l-0.239-3.642c-0.025-0.383-0.374-0.662-0.754-0.602l-3.69 0.584c-0.504 0.080-0.9-0.423-0.706-0.894l1.386-3.36c0.148-0.359-0.048-0.767-0.421-0.876l-3.555-1.036c-0.493-0.144-0.635-0.773-0.252-1.115l2.731-2.433c0.291-0.26 0.291-0.715 0-0.975l-2.731-2.433c-0.383-0.341-0.241-0.971 0.252-1.115l3.555-1.036c0.373-0.109 0.569-0.517 0.421-0.876l-1.386-3.36c-0.194-0.471 0.202-0.974 0.706-0.894l3.69 0.584c0.38 0.060 0.729-0.219 0.754-0.602l0.239-3.642c0.033-0.505 0.603-0.782 1.020-0.496l3.081 2.107c0.314 0.215 0.745 0.116 0.935-0.214l1.84-3.203z"></path>
</symbol>
<symbol id="icon-pointer" viewBox="0 0 32 32">
<path  d="M27.766 17.957c-0.174-1.303-0.286-2.466-0.337-3.49-0.022-1.040 0.017-1.94 0.119-2.7l-25.293 14.603-1.197-2.073 25.293-14.603c-0.728-0.325-1.537-0.758-2.426-1.297-0.861-0.556-1.803-1.218-2.825-1.988l1.519-0.877c3.209 1.349 6.143 2.024 8.804 2.023l0.513 0.888c-1.35 2.271-2.233 5.149-2.65 8.636l-1.519 0.877z"></path>
</symbol>
</defs>
</svg>
